<?xml version="1.0" encoding="UTF-8" standalone="no"?> <!-- Created with Vectornator for iOS (http://vectornator.io/) --><!DOCTYPE svg PUBLIC "-//W3C//DTD SVG 1.1//EN" "http://www.w3.org/Graphics/SVG/1.1/DTD/svg11.dtd">
<svg style="" xmlns:vectornator="http://vectornator.io" xmlns:xlink="http://www.w3.org/1999/xlink" xmlns="http://www.w3.org/2000/svg" xml:space="preserve" version="1.1" viewBox="0 0 498.96 498.96">
<defs/>
<g id="Layer 2" vectornator:layerName="Layer 2">
<path stroke="#ca915b" stroke-width="1" d="M35.936+36.2392L461.186+36.2393L461.186+461.489L35.936+461.489L35.936+36.2392ZM448.043+40.1408C448.043+30.0025+458.621+21.7838+471.67+21.7838C484.718+21.7838+495.296+30.0026+495.296+40.1408C495.296+50.2791+484.718+58.4979+471.67+58.4979C458.621+58.4979+448.043+50.2791+448.043+40.1408ZM448.043+67.8811C448.043+57.7428+458.621+49.524+471.67+49.524C484.718+49.524+495.296+57.7428+495.296+67.8811C495.296+78.0194+484.718+86.2381+471.67+86.2381C458.621+86.2381+448.043+78.0194+448.043+67.8811ZM448.043+95.6213C448.043+85.483+458.621+77.2642+471.67+77.2642C484.718+77.2642+495.296+85.483+495.296+95.6213C495.296+105.76+484.718+113.978+471.67+113.978C458.621+113.978+448.043+105.76+448.043+95.6213ZM448.043+123.361C448.043+113.223+458.621+105.004+471.67+105.004C484.718+105.004+495.296+113.223+495.296+123.361C495.296+133.5+484.718+141.718+471.67+141.718C458.621+141.718+448.043+133.5+448.043+123.361ZM448.043+151.498C448.043+141.359+458.621+133.141+471.67+133.141C484.718+133.141+495.296+141.359+495.296+151.498C495.296+161.636+484.718+169.855+471.67+169.855C458.621+169.855+448.043+161.636+448.043+151.498ZM448.043+179.238C448.043+169.1+458.621+160.881+471.67+160.881C484.718+160.881+495.296+169.1+495.296+179.238C495.296+189.376+484.718+197.595+471.67+197.595C458.621+197.595+448.043+189.376+448.043+179.238ZM448.043+206.978C448.043+196.84+458.621+188.621+471.67+188.621C484.718+188.621+495.296+196.84+495.296+206.978C495.296+217.116+484.718+225.335+471.67+225.335C458.621+225.335+448.043+217.116+448.043+206.978ZM448.043+234.718C448.043+224.58+458.621+216.361+471.67+216.361C484.718+216.361+495.296+224.58+495.296+234.718C495.296+244.857+484.718+253.075+471.67+253.075C458.621+253.075+448.043+244.857+448.043+234.718ZM448.043+262.458C448.043+252.32+458.621+244.101+471.67+244.101C484.718+244.101+495.296+252.32+495.296+262.458C495.296+272.597+484.718+280.815+471.67+280.815C458.621+280.815+448.043+272.597+448.043+262.458ZM448.043+290.199C448.043+280.06+458.621+271.842+471.67+271.842C484.718+271.842+495.296+280.06+495.296+290.199C495.296+300.337+484.718+308.556+471.67+308.556C458.621+308.556+448.043+300.337+448.043+290.199ZM448.043+317.939C448.043+307.801+458.621+299.582+471.67+299.582C484.718+299.582+495.296+307.801+495.296+317.939C495.296+328.077+484.718+336.296+471.67+336.296C458.621+336.296+448.043+328.077+448.043+317.939ZM448.043+345.679C448.043+335.541+458.621+327.322+471.67+327.322C484.718+327.322+495.296+335.541+495.296+345.679C495.296+355.817+484.718+364.036+471.67+364.036C458.621+364.036+448.043+355.817+448.043+345.679ZM448.043+373.815C448.043+363.677+458.621+355.458+471.67+355.458C484.718+355.458+495.296+363.677+495.296+373.815C495.296+383.953+484.718+392.172+471.67+392.172C458.621+392.172+448.043+383.953+448.043+373.815ZM448.043+401.555C448.043+391.417+458.621+383.198+471.67+383.198C484.718+383.198+495.296+391.417+495.296+401.555C495.296+411.694+484.718+419.912+471.67+419.912C458.621+419.912+448.043+411.694+448.043+401.555ZM448.043+429.296C448.043+419.157+458.621+410.939+471.67+410.939C484.718+410.939+495.296+419.157+495.296+429.296C495.296+439.434+484.718+447.653+471.67+447.653C458.621+447.653+448.043+439.434+448.043+429.296ZM448.043+457.036C448.043+446.898+458.621+438.679+471.67+438.679C484.718+438.679+495.296+446.898+495.296+457.036C495.296+467.174+484.718+475.393+471.67+475.393C458.621+475.393+448.043+467.174+448.043+457.036ZM457.517+447.554C467.655+447.554+475.874+458.132+475.874+471.18C475.874+484.229+467.655+494.806+457.517+494.806C447.379+494.806+439.16+484.229+439.16+471.18C439.16+458.132+447.379+447.554+457.517+447.554ZM429.777+447.554C439.915+447.554+448.134+458.132+448.134+471.18C448.134+484.229+439.915+494.806+429.777+494.806C419.639+494.806+411.42+484.229+411.42+471.18C411.42+458.132+419.639+447.554+429.777+447.554ZM402.037+447.554C412.175+447.554+420.394+458.132+420.394+471.18C420.394+484.229+412.175+494.806+402.037+494.806C391.898+494.806+383.68+484.229+383.68+471.18C383.68+458.132+391.898+447.554+402.037+447.554ZM374.296+447.554C384.435+447.554+392.653+458.132+392.653+471.18C392.653+484.229+384.435+494.806+374.296+494.806C364.158+494.806+355.939+484.228+355.939+471.18C355.939+458.132+364.158+447.554+374.296+447.554ZM346.16+447.554C356.299+447.554+364.517+458.132+364.517+471.18C364.517+484.228+356.299+494.806+346.16+494.806C336.022+494.806+327.803+484.228+327.803+471.18C327.803+458.132+336.022+447.554+346.16+447.554ZM318.42+447.554C328.558+447.554+336.777+458.132+336.777+471.18C336.777+484.228+328.558+494.806+318.42+494.806C308.282+494.806+300.063+484.228+300.063+471.18C300.063+458.132+308.282+447.554+318.42+447.554ZM290.68+447.554C300.818+447.554+309.037+458.132+309.037+471.18C309.037+484.228+300.818+494.806+290.68+494.806C280.542+494.806+272.323+484.228+272.323+471.18C272.323+458.132+280.542+447.554+290.68+447.554ZM262.94+447.554C273.078+447.554+281.297+458.132+281.297+471.18C281.297+484.228+273.078+494.806+262.94+494.806C252.801+494.806+244.583+484.228+244.583+471.18C244.583+458.132+252.801+447.554+262.94+447.554ZM235.199+447.554C245.338+447.554+253.557+458.132+253.557+471.18C253.557+484.228+245.338+494.806+235.199+494.806C225.061+494.806+216.842+484.228+216.842+471.18C216.842+458.132+225.061+447.554+235.199+447.554ZM207.459+447.554C217.598+447.554+225.816+458.132+225.816+471.18C225.816+484.228+217.598+494.806+207.459+494.806C197.321+494.806+189.102+484.228+189.102+471.18C189.102+458.132+197.321+447.554+207.459+447.554ZM179.719+447.554C189.857+447.554+198.076+458.132+198.076+471.18C198.076+484.228+189.857+494.806+179.719+494.806C169.581+494.806+161.362+484.228+161.362+471.18C161.362+458.132+169.581+447.554+179.719+447.554ZM151.979+447.554C162.117+447.554+170.336+458.132+170.336+471.18C170.336+484.228+162.117+494.806+151.979+494.806C141.841+494.806+133.622+484.228+133.622+471.18C133.622+458.132+141.841+447.554+151.979+447.554ZM123.843+447.554C133.981+447.554+142.2+458.132+142.2+471.18C142.2+484.228+133.981+494.806+123.843+494.806C113.704+494.806+105.486+484.228+105.486+471.18C105.486+458.132+113.704+447.554+123.843+447.554ZM96.1025+447.554C106.241+447.554+114.46+458.132+114.46+471.18C114.46+484.228+106.241+494.806+96.1025+494.806C85.9642+494.806+77.7455+484.228+77.7455+471.18C77.7455+458.132+85.9642+447.554+96.1025+447.554ZM68.3623+447.554C78.5006+447.554+86.7193+458.132+86.7193+471.18C86.7193+484.228+78.5006+494.806+68.3623+494.806C58.224+494.806+50.0053+484.228+50.0053+471.18C50.0053+458.132+58.224+447.554+68.3623+447.554ZM40.6221+447.554C50.7604+447.554+58.9791+458.132+58.9791+471.18C58.9791+484.228+50.7604+494.806+40.6221+494.806C30.4838+494.806+22.2651+484.228+22.2651+471.18C22.2651+458.132+30.4838+447.554+40.6221+447.554ZM3.03195+40.1408C3.03196+30.0025+13.6098+21.7837+26.6582+21.7837C39.7066+21.7837+50.2844+30.0025+50.2844+40.1408C50.2844+50.2791+39.7066+58.4978+26.6582+58.4978C13.6098+58.4978+3.03195+50.2791+3.03195+40.1408ZM3.03195+67.881C3.03195+57.7427+13.6098+49.524+26.6582+49.524C39.7066+49.524+50.2844+57.7427+50.2844+67.881C50.2844+78.0193+39.7066+86.238+26.6582+86.238C13.6098+86.238+3.03195+78.0193+3.03195+67.881ZM3.03194+95.6212C3.03195+85.4829+13.6098+77.2642+26.6582+77.2642C39.7066+77.2642+50.2844+85.4829+50.2844+95.6212C50.2844+105.759+39.7066+113.978+26.6582+113.978C13.6098+113.978+3.03194+105.759+3.03194+95.6212ZM3.03194+123.361C3.03194+113.223+13.6098+105.004+26.6582+105.004C39.7066+105.004+50.2844+113.223+50.2844+123.361C50.2844+133.5+39.7066+141.718+26.6582+141.718C13.6098+141.718+3.03194+133.5+3.03194+123.361ZM3.03193+151.498C3.03194+141.359+13.6098+133.14+26.6582+133.14C39.7066+133.14+50.2844+141.359+50.2844+151.498C50.2844+161.636+39.7066+169.855+26.6582+169.855C13.6098+169.855+3.03193+161.636+3.03193+151.498ZM3.03193+179.238C3.03193+169.099+13.6098+160.881+26.6582+160.881C39.7066+160.881+50.2844+169.099+50.2844+179.238C50.2844+189.376+39.7066+197.595+26.6582+197.595C13.6098+197.595+3.03193+189.376+3.03193+179.238ZM3.03192+206.978C3.03193+196.84+13.6098+188.621+26.6582+188.621C39.7066+188.621+50.2844+196.84+50.2844+206.978C50.2844+217.116+39.7066+225.335+26.6582+225.335C13.6097+225.335+3.03192+217.116+3.03192+206.978ZM3.03192+234.718C3.03192+224.58+13.6097+216.361+26.6582+216.361C39.7066+216.361+50.2844+224.58+50.2844+234.718C50.2844+244.856+39.7066+253.075+26.6582+253.075C13.6097+253.075+3.03192+244.856+3.03192+234.718ZM3.03192+262.458C3.03192+252.32+13.6097+244.101+26.6582+244.101C39.7066+244.101+50.2844+252.32+50.2844+262.458C50.2844+272.597+39.7066+280.815+26.6581+280.815C13.6097+280.815+3.03191+272.597+3.03192+262.458ZM3.03191+290.199C3.03191+280.06+13.6097+271.842+26.6581+271.842C39.7066+271.842+50.2844+280.06+50.2844+290.199C50.2844+300.337+39.7066+308.556+26.6581+308.556C13.6097+308.556+3.03191+300.337+3.03191+290.199ZM3.03191+317.939C3.03191+307.8+13.6097+299.582+26.6581+299.582C39.7066+299.582+50.2844+307.801+50.2844+317.939C50.2844+328.077+39.7065+336.296+26.6581+336.296C13.6097+336.296+3.0319+328.077+3.03191+317.939ZM3.0319+345.679C3.0319+335.541+13.6097+327.322+26.6581+327.322C39.7065+327.322+50.2844+335.541+50.2844+345.679C50.2844+355.817+39.7065+364.036+26.6581+364.036C13.6097+364.036+3.0319+355.817+3.0319+345.679ZM3.0319+373.815C3.0319+363.677+13.6097+355.458+26.6581+355.458C39.7065+355.458+50.2844+363.677+50.2844+373.815C50.2844+383.953+39.7065+392.172+26.6581+392.172C13.6097+392.172+3.03189+383.953+3.0319+373.815ZM3.03189+401.555C3.03189+391.417+13.6097+383.198+26.6581+383.198C39.7065+383.198+50.2844+391.417+50.2844+401.555C50.2844+411.694+39.7065+419.912+26.6581+419.912C13.6097+419.912+3.03189+411.694+3.03189+401.555ZM3.03189+429.296C3.03189+419.157+13.6097+410.939+26.6581+410.939C39.7065+410.939+50.2844+419.157+50.2844+429.296C50.2844+439.434+39.7065+447.653+26.6581+447.653C13.6097+447.653+3.03188+439.434+3.03189+429.296ZM3.03188+457.036C3.03188+446.897+13.6097+438.679+26.6581+438.679C39.7065+438.679+50.2844+446.897+50.2844+457.036C50.2844+467.174+39.7065+475.393+26.6581+475.393C13.6097+475.393+3.03188+467.174+3.03188+457.036ZM457.517+2.37296C467.655+2.37296+475.874+12.9508+475.874+25.9992C475.874+39.0476+467.655+49.6254+457.517+49.6254C447.379+49.6254+439.16+39.0476+439.16+25.9992C439.16+12.9508+447.379+2.37296+457.517+2.37296ZM429.777+2.37295C439.915+2.37295+448.134+12.9508+448.134+25.9992C448.134+39.0476+439.915+49.6254+429.777+49.6254C419.639+49.6254+411.42+39.0476+411.42+25.9992C411.42+12.9508+419.639+2.37295+429.777+2.37295ZM402.037+2.37295C412.175+2.37295+420.394+12.9508+420.394+25.9992C420.394+39.0476+412.175+49.6254+402.037+49.6254C391.898+49.6254+383.68+39.0476+383.68+25.9992C383.68+12.9508+391.898+2.37295+402.037+2.37295ZM374.297+2.37295C384.435+2.37295+392.654+12.9508+392.654+25.9992C392.654+39.0476+384.435+49.6254+374.297+49.6254C364.158+49.6254+355.94+39.0476+355.94+25.9992C355.94+12.9508+364.158+2.37294+374.297+2.37295ZM346.16+2.37294C356.299+2.37294+364.517+12.9508+364.517+25.9992C364.517+39.0476+356.299+49.6254+346.16+49.6254C336.022+49.6254+327.803+39.0476+327.803+25.9992C327.803+12.9508+336.022+2.37294+346.16+2.37294ZM318.42+2.37294C328.559+2.37294+336.777+12.9508+336.777+25.9992C336.777+39.0476+328.558+49.6254+318.42+49.6254C308.282+49.6254+300.063+39.0476+300.063+25.9992C300.063+12.9508+308.282+2.37294+318.42+2.37294ZM290.68+2.37293C300.818+2.37294+309.037+12.9508+309.037+25.9992C309.037+39.0476+300.818+49.6254+290.68+49.6254C280.542+49.6254+272.323+39.0476+272.323+25.9992C272.323+12.9508+280.542+2.37293+290.68+2.37293ZM262.94+2.37293C273.078+2.37293+281.297+12.9508+281.297+25.9992C281.297+39.0476+273.078+49.6254+262.94+49.6254C252.801+49.6254+244.583+39.0476+244.583+25.9992C244.583+12.9508+252.801+2.37293+262.94+2.37293ZM235.2+2.37293C245.338+2.37293+253.557+12.9508+253.557+25.9992C253.557+39.0476+245.338+49.6254+235.2+49.6254C225.061+49.6254+216.843+39.0476+216.843+25.9992C216.843+12.9507+225.061+2.37293+235.2+2.37293ZM207.459+2.37292C217.598+2.37292+225.816+12.9508+225.816+25.9992C225.816+39.0476+217.598+49.6254+207.459+49.6254C197.321+49.6254+189.102+39.0476+189.102+25.9992C189.102+12.9507+197.321+2.37292+207.459+2.37292ZM179.719+2.37292C189.857+2.37292+198.076+12.9507+198.076+25.9992C198.076+39.0476+189.857+49.6254+179.719+49.6254C169.581+49.6254+161.362+39.0476+161.362+25.9992C161.362+12.9507+169.581+2.37292+179.719+2.37292ZM151.979+2.37292C162.117+2.37292+170.336+12.9507+170.336+25.9992C170.336+39.0476+162.117+49.6254+151.979+49.6254C141.841+49.6254+133.622+39.0476+133.622+25.9991C133.622+12.9507+141.841+2.37291+151.979+2.37292ZM123.843+2.37291C133.981+2.37291+142.2+12.9507+142.2+25.9991C142.2+39.0476+133.981+49.6254+123.843+49.6254C113.705+49.6254+105.486+39.0476+105.486+25.9991C105.486+12.9507+113.705+2.37291+123.843+2.37291ZM96.1026+2.37291C106.241+2.37291+114.46+12.9507+114.46+25.9991C114.46+39.0476+106.241+49.6254+96.1026+49.6254C85.9643+49.6254+77.7456+39.0476+77.7456+25.9991C77.7456+12.9507+85.9643+2.37291+96.1026+2.37291ZM68.3624+2.3729C78.5007+2.37291+86.7194+12.9507+86.7194+25.9991C86.7194+39.0476+78.5007+49.6254+68.3624+49.6254C58.2241+49.6254+50.0054+39.0475+50.0054+25.9991C50.0054+12.9507+58.2241+2.3729+68.3624+2.3729ZM40.6222+2.3729C50.7605+2.3729+58.9792+12.9507+58.9792+25.9991C58.9792+39.0475+50.7605+49.6254+40.6222+49.6254C30.4839+49.6254+22.2652+39.0475+22.2652+25.9991C22.2652+12.9507+30.4839+2.3729+40.6222+2.3729ZM7.68501+458.568L8.1879+458.568L8.1879+458.568L7.68501+458.568ZM433.324+464.224C433.324+447.001+447.286+433.039+464.51+433.039C481.733+433.039+495.695+447.001+495.695+464.224C495.695+481.448+481.733+495.41+464.509+495.41C447.286+495.41+433.324+481.448+433.324+464.224ZM464.651+64.6897C447.427+64.6897+433.465+50.7274+433.465+33.504C433.465+16.2807+447.427+2.31841+464.651+2.31841C481.874+2.31842+495.836+16.2807+495.836+33.504C495.836+50.7274+481.874+64.6897+464.651+64.6897ZM65.265+33.6251C65.265+50.8484+51.3027+64.8107+34.0793+64.8107C16.856+64.8107+2.89371+50.8484+2.89371+33.6251C2.89372+16.4017+16.856+2.43947+34.0793+2.43947C51.3027+2.43948+65.265+16.4018+65.265+33.6251ZM34.1249+432.959C51.3482+432.959+65.3105+446.921+65.3105+464.145C65.3105+481.368+51.3482+495.33+34.1249+495.33C16.9015+495.33+2.93924+481.368+2.93924+464.145C2.93924+446.921+16.9015+432.959+34.1249+432.959Z" fill="#ca915b" stroke-linecap="round" opacity="1" stroke-linejoin="round"/>
</g>
</svg>
